<svg width="18" height="19" viewBox="0 0 18 19" fill="none" xmlns="http://www.w3.org/2000/svg">
<path d="M0.5625 9.49844C0.5625 13.1828 2.925 16.3047 6.1875 17.4578V1.53906C2.925 2.69219 0.5625 5.81406 0.5625 9.49844Z" fill="#ED4C5C"/>
<path d="M9 1.0625C8.01562 1.0625 7.05937 1.23125 6.1875 1.54063V6.6875H16.9594C15.8062 3.425 12.6844 1.0625 9 1.0625Z" fill="#699635"/>
<path d="M16.9594 6.6875H6.1875V12.3125H16.9594C17.2688 11.4406 17.4375 10.4844 17.4375 9.5C17.4375 8.51562 17.2688 7.55937 16.9594 6.6875Z" fill="#F9F9F9"/>
<path d="M6.1875 12.3125V17.4594C7.05937 17.7687 8.01562 17.9375 9 17.9375C12.6844 17.9375 15.8062 15.6031 16.9594 12.3125H6.1875Z" fill="#3E4347"/>
</svg>
