<svg width="18" height="19" viewBox="0 0 18 19" fill="none" xmlns="http://www.w3.org/2000/svg">
<path d="M9 17.9375C13.6599 17.9375 17.4375 14.1599 17.4375 9.5C17.4375 4.8401 13.6599 1.0625 9 1.0625C4.3401 1.0625 0.5625 4.8401 0.5625 9.5C0.5625 14.1599 4.3401 17.9375 9 17.9375Z" fill="#ED4C5C"/>
<path d="M6.1875 8.4875L8.4375 10.0625L7.59375 7.475L9.84375 5.84375H7.05938L6.1875 3.3125L5.34375 5.84375H2.53125L4.78125 7.475L3.9375 10.0625L6.1875 8.4875ZM9.92812 10.4281L9.28125 10.5687L9.9 10.8219V11.4688L10.3219 10.9906L10.9406 11.2156L10.575 10.6813L10.9688 10.175L10.3219 10.3156L9.92812 9.78125V10.4281ZM10.8844 8.51562L10.4062 8.9375L11.0531 8.88125L11.3344 9.5L11.4469 8.85313L12.0938 8.79688L11.5312 8.45937L11.6719 7.8125L11.1937 8.23438L10.6312 7.89687L10.8844 8.51562ZM11.0531 6.32188L11.25 6.96875L11.4469 6.35H12.0938L11.5875 5.95625L11.7844 5.30938L11.25 5.70312L10.7438 5.28125L10.9406 5.92812L10.4062 6.29375L11.0531 6.32188ZM9.92812 4.07187V4.71875L10.3219 4.18438L10.9688 4.325L10.575 3.81875L10.9406 3.28437L10.3219 3.5375L9.9 3.03125V3.67813L9.28125 3.93125L9.92812 4.07187Z" fill="#FFE62E"/>
</svg>
