<svg width="18" height="19" viewBox="0 0 18 19" fill="none" xmlns="http://www.w3.org/2000/svg">
<path d="M8.97183 1.0625C5.28745 1.0625 2.16558 3.425 1.01245 6.6875H16.9312C15.7781 3.425 12.6562 1.0625 8.97183 1.0625Z" fill="#3E4347"/>
<path d="M8.97183 17.9375C12.6562 17.9375 15.7781 15.6031 16.9312 12.3125H1.01245C2.16558 15.6031 5.28745 17.9375 8.97183 17.9375Z" fill="#FFE62E"/>
<path d="M1.01255 6.6875C0.703174 7.55937 0.534424 8.51562 0.534424 9.5C0.534424 10.4844 0.703174 11.4406 1.01255 12.3125H16.9313C17.2407 11.4406 17.4094 10.4844 17.4094 9.5C17.4094 8.51562 17.2407 7.55937 16.9313 6.6875H1.01255Z" fill="#ED4C5C"/>
</svg>
