<svg width="16" height="16" viewBox="0 0 16 16" fill="none" xmlns="http://www.w3.org/2000/svg">
<path d="M5.19992 1.33203H10.7999C12.9333 1.33203 14.6666 3.06536 14.6666 5.1987V10.7987C14.6666 11.8242 14.2592 12.8077 13.5341 13.5328C12.8089 14.258 11.8254 14.6654 10.7999 14.6654H5.19992C3.06659 14.6654 1.33325 12.932 1.33325 10.7987V5.1987C1.33325 4.17319 1.74063 3.18969 2.46577 2.46455C3.19091 1.73941 4.17441 1.33203 5.19992 1.33203ZM5.06659 2.66536C4.43007 2.66536 3.81962 2.91822 3.36953 3.36831C2.91944 3.8184 2.66659 4.42884 2.66659 5.06536V10.932C2.66659 12.2587 3.73992 13.332 5.06659 13.332H10.9333C11.5698 13.332 12.1802 13.0792 12.6303 12.6291C13.0804 12.179 13.3333 11.5686 13.3333 10.932V5.06536C13.3333 3.7387 12.2599 2.66536 10.9333 2.66536H5.06659ZM11.4999 3.66536C11.7209 3.66536 11.9329 3.75316 12.0892 3.90944C12.2455 4.06572 12.3333 4.27768 12.3333 4.4987C12.3333 4.71971 12.2455 4.93167 12.0892 5.08795C11.9329 5.24423 11.7209 5.33203 11.4999 5.33203C11.2789 5.33203 11.0669 5.24423 10.9107 5.08795C10.7544 4.93167 10.6666 4.71971 10.6666 4.4987C10.6666 4.27768 10.7544 4.06572 10.9107 3.90944C11.0669 3.75316 11.2789 3.66536 11.4999 3.66536ZM7.99992 4.66536C8.88397 4.66536 9.73182 5.01655 10.3569 5.64167C10.9821 6.2668 11.3333 7.11464 11.3333 7.9987C11.3333 8.88275 10.9821 9.7306 10.3569 10.3557C9.73182 10.9808 8.88397 11.332 7.99992 11.332C7.11586 11.332 6.26802 10.9808 5.6429 10.3557C5.01777 9.7306 4.66658 8.88275 4.66658 7.9987C4.66658 7.11464 5.01777 6.2668 5.6429 5.64167C6.26802 5.01655 7.11586 4.66536 7.99992 4.66536ZM7.99992 5.9987C7.46949 5.9987 6.96078 6.20941 6.5857 6.58448C6.21063 6.95956 5.99992 7.46826 5.99992 7.9987C5.99992 8.52913 6.21063 9.03784 6.5857 9.41291C6.96078 9.78798 7.46949 9.9987 7.99992 9.9987C8.53035 9.9987 9.03906 9.78798 9.41413 9.41291C9.7892 9.03784 9.99992 8.52913 9.99992 7.9987C9.99992 7.46826 9.7892 6.95956 9.41413 6.58448C9.03906 6.20941 8.53035 5.9987 7.99992 5.9987Z" fill="white" fill-opacity="0.9"/>
</svg>
