<svg width="16" height="14" viewBox="0 0 16 14" fill="none" xmlns="http://www.w3.org/2000/svg">
<g clip-path="url(#clip0_1833_3933)">
<mask id="mask0_1833_3933" style="mask-type:luminance" maskUnits="userSpaceOnUse" x="0" y="0" width="16" height="14">
<path d="M15.685 0H0.457031V13.3244H15.685V0Z" fill="white"/>
</mask>
<g mask="url(#mask0_1833_3933)">
<path d="M14.7434 8.10922C14.7434 8.41612 14.6893 8.70963 14.5904 8.98026C14.2518 9.90461 13.3915 10.5613 12.3833 10.5613C11.3515 10.5613 10.4748 9.87345 10.1538 8.9149C8.24768 9.05725 7.15773 8.17206 6.70454 6.48491C5.55974 6.16141 4.71826 5.07386 4.71826 3.78179C4.71826 2.94616 5.07045 2.19581 5.62901 1.68288C6.1043 1.24569 6.72939 0.980469 7.41417 0.980469C8.19869 0.980469 8.90514 1.32851 9.39717 1.88484C9.72817 1.65996 10.1237 1.52961 10.5485 1.52961C10.8449 1.52961 11.1275 1.59336 11.3836 1.70827C12.1244 2.04054 12.6454 2.80163 12.657 3.69064C12.6574 3.70104 12.6574 3.71103 12.6574 3.72146L12.657 3.75853V3.75893C12.7647 3.73436 12.8765 3.72146 12.9915 3.72146C13.5053 3.72146 13.9617 3.97713 14.2493 4.37266H14.2498C14.4493 4.64707 14.5675 4.98889 14.5675 5.35947C14.5682 5.7438 14.4379 6.11598 14.1996 6.40996C14.1818 6.43263 14.1632 6.45471 14.1439 6.47616C14.517 6.90961 14.7434 7.48215 14.7434 8.10922Z" fill="white"/>
<path d="M10.5218 3.582C10.0949 4.06419 9.83406 4.70784 9.83406 5.41481C9.83406 6.91002 11.0007 8.12216 12.4395 8.12216C12.6252 8.12223 12.8103 8.1018 12.9918 8.06124M7.2998 2.70808C7.36499 3.6859 8.14901 4.45811 9.10657 4.45811M11.9869 4.09499C12.1805 3.92779 12.4102 3.8118 12.6564 3.75694M9.39669 1.88281C9.09335 2.08805 8.8441 2.37247 8.67624 2.70808" stroke="#4B4D4E" stroke-width="0.473941" stroke-miterlimit="10" stroke-linecap="round" stroke-linejoin="round"/>
<path d="M14.7431 8.10921C14.7431 9.46364 13.6865 10.5613 12.383 10.5613C11.3513 10.5613 10.4745 9.87344 10.1535 8.91489C8.24743 9.05724 7.15749 8.17206 6.70429 6.48491C5.5595 6.16142 4.71802 5.07386 4.71802 3.7818C4.71802 2.2346 5.9249 0.980469 7.41393 0.980469C8.19844 0.980469 8.90489 1.32851 9.39699 1.88484C9.72791 1.65996 10.1234 1.52962 10.5482 1.52962C11.713 1.52962 12.6571 2.51106 12.6571 3.72146L12.6567 3.75853V3.75894C12.7645 3.73437 12.8763 3.72146 12.9913 3.72146C13.8616 3.72146 14.5672 4.45467 14.5672 5.35948C14.5672 5.79127 14.4066 6.18349 14.1437 6.47617C14.5167 6.90962 14.7431 7.48215 14.7431 8.10921Z" stroke="#4B4D4E" stroke-width="0.41467" stroke-miterlimit="10" stroke-linejoin="round"/>
<path d="M14.1436 6.4729C14.1436 6.4729 13.9607 6.27563 13.7104 6.07031M7.10614 10.9198C7.00284 10.6956 6.93675 10.4549 6.91064 10.2077" stroke="#4B4D4E" stroke-width="0.473941" stroke-miterlimit="10" stroke-linecap="round" stroke-linejoin="round"/>
<path d="M11.7338 9.21655C11.8172 9.45706 11.8598 9.71081 11.8596 9.96642C11.8596 11.2814 10.7489 12.3468 9.37841 12.3468C8.36224 12.3468 7.48907 11.761 7.10603 10.922C6.79032 11.1448 6.4116 11.2747 6.00489 11.2747C5.09294 11.2747 4.32356 10.6226 4.08235 9.7308C3.91014 9.77536 3.73332 9.79794 3.55583 9.79779C2.36454 9.79779 1.39844 8.79431 1.39844 7.55603C1.39844 6.60502 1.96862 5.79228 2.77323 5.46707C2.74158 5.33094 2.72475 5.18979 2.72475 5.04489C2.72475 3.92193 3.72894 3.01172 4.96789 3.01172C5.67915 3.01172 6.3138 3.31229 6.72453 3.7803C7.05394 3.59668 7.43381 3.49138 7.83853 3.49138C9.0939 3.49138 10.1117 4.50277 10.1117 5.75021C10.1118 5.77963 10.1112 5.80905 10.1096 5.83843C11.1455 6.03579 11.9328 7.02432 11.9328 8.21433C11.9328 8.57194 11.8619 8.91142 11.7338 9.21655Z" fill="white"/>
<path d="M10.9289 8.10523C11.2987 8.38911 11.5817 8.77308 11.7339 9.2136M4.08254 9.72777C4.03124 9.53879 4.00398 9.33929 4.00398 9.13276C4.00398 8.28999 4.46039 7.561 5.12317 7.21247M3.33524 5.32336C3.13891 5.34419 2.95057 5.39209 2.77344 5.4641M6.72519 3.77775L6.72474 3.77734C6.44309 3.93558 6.19867 4.1513 6.00753 4.40862" stroke="#4B4D4E" stroke-width="0.473941" stroke-miterlimit="10" stroke-linecap="round" stroke-linejoin="round"/>
<path d="M11.7348 9.21656C11.8182 9.45706 11.8607 9.71082 11.8606 9.96643C11.8606 11.2814 10.7498 12.3468 9.37935 12.3468C8.36324 12.3468 7.49006 11.761 7.107 10.922C6.7913 11.1448 6.41257 11.2747 6.00587 11.2747C5.09392 11.2747 4.32453 10.6227 4.08334 9.73081C3.91112 9.77537 3.73429 9.79795 3.55681 9.7978C2.36552 9.7978 1.39941 8.79432 1.39941 7.55604C1.39941 6.60503 1.96961 5.79228 2.77421 5.46707C2.74256 5.33094 2.72573 5.18979 2.72573 5.0449C2.72573 3.92193 3.72991 3.01172 4.96887 3.01172C5.68012 3.01172 6.31478 3.31229 6.72551 3.78031C7.05492 3.59668 7.43478 3.49138 7.83953 3.49138C9.0949 3.49138 10.1127 4.50278 10.1127 5.75022C10.1128 5.77963 10.1121 5.80905 10.1106 5.83843C11.1465 6.0358 11.9338 7.02432 11.9338 8.21434C11.9338 8.57195 11.8629 8.91135 11.7347 9.21648L11.7348 9.21656Z" stroke="#4B4D4E" stroke-width="0.41467" stroke-miterlimit="10" stroke-linejoin="round"/>
<path d="M8.17049 6.50738C8.56958 6.07103 9.12059 5.80078 9.72877 5.80078C9.85864 5.80078 9.98571 5.81286 10.1095 5.83654M9.96674 8.6728C9.65234 9.08134 9.16857 9.34309 8.62597 9.34309C7.67831 9.34309 6.91016 8.54481 6.91016 7.56021C6.90955 7.14903 7.04628 6.75041 7.297 6.43234" stroke="#4B4D4E" stroke-width="0.473941" stroke-miterlimit="10" stroke-linecap="round" stroke-linejoin="round"/>
<path d="M9.38531 10.2258C9.38531 9.87563 9.30034 9.54629 9.15043 9.25856M5.7994 9.08705C6.08228 8.65148 6.5227 8.33629 7.03601 8.22932M2.74048 7.55555C2.95782 7.46613 3.18949 7.42016 3.42327 7.42023C3.79812 7.41971 4.1642 7.53793 4.47268 7.75926M6.26807 5.91464C6.15131 5.95037 6.02774 5.96951 5.89983 5.96951C5.56036 5.96998 5.23422 5.83228 4.99125 5.58594M11.8993 5.82771C12.0789 5.68846 12.2971 5.6134 12.5212 5.61376C12.5835 5.61373 12.6456 5.61946 12.7069 5.63091" stroke="#4B4D4E" stroke-width="0.473941" stroke-miterlimit="10" stroke-linecap="round" stroke-linejoin="round"/>
<path d="M14.3292 6.47437C14.5744 6.15818 14.7082 5.76612 14.7082 5.35678C14.7082 4.37321 13.9383 3.57299 12.992 3.57299C12.9259 3.57299 12.8598 3.57699 12.7944 3.58485C12.7275 2.35796 11.7458 1.38121 10.5489 1.38121C10.1498 1.38121 9.76203 1.48979 9.42048 1.69627C8.88829 1.14364 8.16691 0.832846 7.41455 0.832031C6.15351 0.832031 5.08255 1.69189 4.71492 2.87682C3.51963 2.99302 2.58532 3.92019 2.58532 5.04324C2.58532 5.15501 2.59472 5.26696 2.61327 5.37738C1.78664 5.76236 1.25903 6.60387 1.25903 7.55436C1.25903 8.87082 2.28975 9.94188 3.55666 9.94188C3.70133 9.94188 3.84569 9.92789 3.98785 9.89998C4.28856 10.8008 5.1004 11.4187 6.00575 11.4187C6.37309 11.419 6.73401 11.3187 7.05215 11.1278C7.50006 11.961 8.39604 12.4909 9.37925 12.4909C10.5763 12.4909 11.5878 11.7134 11.9003 10.6551C12.0575 10.6872 12.2192 10.7043 12.3837 10.7043C13.7624 10.7043 14.8841 9.53882 14.8841 8.10651C14.8841 7.5098 14.6879 6.93511 14.3292 6.47437Z" stroke="#4B4D4E" stroke-width="0.829385" stroke-miterlimit="10" stroke-linejoin="round"/>
<path d="M7.41397 0C6.6732 0 5.96065 0.229215 5.35337 0.662818C4.82901 1.03721 4.41336 1.5422 4.13879 2.13517C2.80232 2.47171 1.84679 3.58927 1.78639 4.91079C0.959183 5.50759 0.457031 6.49299 0.457031 7.55511C0.457031 9.31216 1.81836 10.7451 3.50249 10.7749C4.03427 11.6828 4.98226 12.2523 6.00516 12.2523C6.26647 12.2523 6.52327 12.2163 6.77234 12.1449C7.41701 12.8899 8.36414 13.3244 9.37866 13.3244C10.0659 13.3244 10.7315 13.1219 11.3037 12.739C11.7687 12.4279 12.1433 12.0171 12.4025 11.5376C14.2143 11.5268 15.6849 9.99215 15.6849 8.10726C15.6849 7.52491 15.5447 6.95979 15.2769 6.45455C15.43 6.11069 15.5091 5.73634 15.5091 5.35748C15.5091 4.6713 15.2545 4.02244 14.7923 3.5305C14.4279 3.14253 13.9665 2.88624 13.4645 2.78705C13.2948 2.21461 12.9698 1.69884 12.5257 1.30574C11.9739 0.817654 11.273 0.549459 10.5483 0.549117C10.2105 0.549117 9.87156 0.608669 9.55213 0.722776C8.93167 0.254666 8.18392 0 7.41397 0ZM7.41397 0.541278C8.16502 0.541278 8.90164 0.831105 9.46579 1.34282C9.80418 1.17655 10.1739 1.09036 10.5483 1.09046C11.7951 1.09046 12.8421 2.03267 13.0432 3.28296C14.1202 3.31166 14.9881 4.23127 14.9881 5.35751C14.9877 5.75213 14.8793 6.1385 14.6757 6.47157C14.9918 6.95027 15.1639 7.52298 15.1639 8.10726C15.1639 9.70042 13.9164 10.9965 12.3831 10.9965C12.2839 10.9965 12.1843 10.9909 12.0853 10.9798C11.6573 12.0531 10.5789 12.7832 9.37859 12.7832C8.3887 12.7832 7.48156 12.3008 6.94933 11.5076C6.65125 11.6416 6.32994 11.7109 6.00516 11.711C5.05886 11.711 4.20295 11.1214 3.80884 10.2213C3.72487 10.2298 3.6404 10.2341 3.55607 10.2341C2.13452 10.2341 0.977965 9.03234 0.977965 7.55511C0.977965 6.57441 1.49451 5.67594 2.31024 5.20936C2.30628 5.15433 2.30429 5.09916 2.30428 5.04398C2.30428 3.83235 3.23953 2.81441 4.50793 2.61055C4.97132 1.36527 6.11717 0.541278 7.41397 0.541278Z" fill="#F0F0F0"/>
</g>
</g>
<defs>
<clipPath id="clip0_1833_3933">
<rect width="16" height="14" fill="white"/>
</clipPath>
</defs>
</svg>
