<svg width="18" height="18" viewBox="0 0 18 18" fill="none" xmlns="http://www.w3.org/2000/svg">
<g clip-path="url(#clip0_1833_3681)">
<mask id="mask0_1833_3681" style="mask-type:luminance" maskUnits="userSpaceOnUse" x="0" y="0" width="18" height="18">
<path d="M9 18C13.9706 18 18 13.9706 18 9C18 4.02944 13.9706 0 9 0C4.02944 0 0 4.02944 0 9C0 13.9706 4.02944 18 9 18Z" fill="white"/>
</mask>
<g mask="url(#mask0_1833_3681)">
<path d="M0 0L0.28125 0.773438L0 1.58203V2.39062L1.125 4.28906L0 6.1875V7.3125L1.125 9L0 10.6875V11.8125L1.125 13.7109L0 15.6094V18L0.773438 17.7188L1.58203 18H2.39062L4.28906 16.875L6.1875 18H7.3125L9 16.875L10.6875 18H11.8125L13.7109 16.875L15.6094 18H18L17.7188 17.2266L18 16.418V15.6094L16.875 13.7109L18 11.8125V10.6875L16.875 9L18 7.3125V6.1875L16.875 4.28906L18 2.39062V0L17.2266 0.28125L16.418 0H15.6094L13.7109 1.125L11.8125 0H10.6875L9 1.125L7.3125 0H6.1875L4.28906 1.125L2.39062 0H0Z" fill="#EEEEEE"/>
<path d="M11.8125 0V3.79688L15.6094 0H11.8125ZM18 2.39062L14.2031 6.1875H18V2.39062ZM0 6.1875H3.79688L0 2.39062V6.1875ZM2.39062 0L6.1875 3.79688V0H2.39062ZM6.1875 18V14.2031L2.39062 18H6.1875ZM0 15.6094L3.79688 11.8125H0V15.6094ZM18 11.8125H14.2031L18 15.6094V11.8125ZM15.6094 18L11.8125 14.2031V18H15.6094Z" fill="#0052B4"/>
<path d="M0 0V1.58203L4.60547 6.1875H6.1875L0 0ZM7.3125 0V7.3125H0V10.6875H7.3125V18H10.6875V10.6875H18V7.3125H10.6875V0H7.3125ZM16.418 0L11.8125 4.60547V6.1875L18 0H16.418ZM6.1875 11.8125L0 18H1.58203L6.1875 13.3945V11.8125ZM11.8125 11.8125L18 18V16.418L13.3945 11.8125H11.8125Z" fill="#D80027"/>
</g>
</g>
<defs>
<clipPath id="clip0_1833_3681">
<rect width="18" height="18" fill="white"/>
</clipPath>
</defs>
</svg>
